<?xml version="1.0" encoding="UTF-8"?><svg id="Layer_1" xmlns="http://www.w3.org/2000/svg" xmlns:xlink="http://www.w3.org/1999/xlink" viewBox="0 0 158.25 40.69" width="158.25" height="40.69"><defs><linearGradient id="linear-gradient" x1="-1124.13" y1="-535.93" x2="-1111.93" y2="-559.02" gradientTransform="translate(389.2 1222.53) rotate(50)" gradientUnits="userSpaceOnUse"><stop offset="0" stop-color="#d94a1d"/><stop offset=".2" stop-color="#d94a20"/><stop offset=".4" stop-color="#d94c2c"/><stop offset=".58" stop-color="#da4f3f"/><stop offset=".63" stop-color="#db5045"/><stop offset=".75" stop-color="#d9433c"/><stop offset=".85" stop-color="#d83532"/><stop offset="1" stop-color="#d72f2a"/></linearGradient><linearGradient id="linear-gradient-2" x1="-1098.33" y1="-532.6" x2="-1110.76" y2="-558.07" gradientTransform="translate(389.2 1222.53) rotate(50)" gradientUnits="userSpaceOnUse"><stop offset=".14" stop-color="#bd142f"/><stop offset=".38" stop-color="#c71b28"/><stop offset=".61" stop-color="#d62620"/><stop offset="1" stop-color="#dc5c64"/></linearGradient><linearGradient id="linear-gradient-3" x1="-1120.43" y1="-535.23" x2="-1100" y2="-535.23" gradientTransform="translate(389.2 1222.53) rotate(50)" gradientUnits="userSpaceOnUse"><stop offset=".19" stop-color="#bd1331"/><stop offset=".59" stop-color="#cf2024"/><stop offset=".89" stop-color="#d62620"/><stop offset="1" stop-color="#d62620"/></linearGradient></defs><path d="m77.79,22.97c.05-1.76,1.25-3.19,2.82-3.65l21.67-6.56c-2.36-3.56-6.42-5.96-11-6.05-7.48-.18-13.72,5.77-13.91,13.31-.05,1.52.18,2.96.6,4.34,0-.05-.23-1.06-.18-1.39h0Z" style="fill:url(#linear-gradient);"/><path d="m104.54,20.57c.09-4.99-2.45-9.38-6.38-11.83.32.23.6.51.83.83.32.51.51,1.11.51,1.76,0,.42-.09.79-.23,1.15l-10.67,21.11c.69.14,1.39.18,2.08.18,7.48.23,13.67-5.68,13.86-13.21h0Z" style="fill:url(#linear-gradient-2);"/><path d="m94.93,33.23c-.18.05-.51.05-.97,0-1.29-.18-2.26-1.15-2.59-2.36l-.05-.18c-1.39-5.04-4.76-9.29-9.24-11.83l-1.57.46c-1.62.46-2.77,1.89-2.82,3.65,0,.32.14,1.11.18,1.29,1.66,5.45,6.65,9.47,12.66,9.56,1.66.05,3.28-.23,4.76-.74-.05.05-.18.09-.37.14h0Z" style="fill:url(#linear-gradient-3);"/><g style="isolation:isolate;"><path d="m4.15,22.14c.51,1.85,1.89,2.77,4.2,2.77,1.48,0,2.59-.51,3.33-1.48l3.1,1.8c-1.48,2.13-3.6,3.19-6.47,3.19-2.45,0-4.44-.74-5.91-2.22-1.52-1.48-2.26-3.37-2.26-5.64s.74-4.11,2.22-5.59c1.48-1.48,3.33-2.26,5.64-2.26,2.17,0,3.97.74,5.41,2.26,1.43,1.52,2.13,3.37,2.13,5.59,0,.51-.05,1.02-.14,1.57,0,0-11.23,0-11.23,0Zm-.05-2.96h7.58c-.23-1.02-.65-1.76-1.34-2.26s-1.48-.74-2.31-.74c-1.02,0-1.89.28-2.54.79-.74.51-1.2,1.25-1.39,2.22Z" style="fill:#1a1a1a;"/><path d="m33.67,13.18h4.07l-4.71,14.83h-3.65l-2.73-9.01-2.73,9.01h-3.65l-4.71-14.83h4.07l2.49,9.1,2.68-9.1h3.6l2.77,9.15,2.49-9.15Z" style="fill:#1a1a1a;"/></g><g style="isolation:isolate;"><path d="m51.13,13.18h3.83v14.83h-3.83v-1.76c-1.15,1.43-2.77,2.17-4.85,2.17s-3.7-.74-5.08-2.26c-1.43-1.52-2.13-3.37-2.13-5.59s.69-4.07,2.13-5.59c1.43-1.52,3.1-2.26,5.08-2.26s3.7.74,4.85,2.17v-1.71Zm-7.07,10.39c.79.79,1.76,1.15,2.96,1.15s2.17-.37,2.96-1.15c.79-.79,1.15-1.8,1.15-3s-.37-2.22-1.15-3-1.76-1.15-2.96-1.15-2.17.37-2.96,1.15c-.79.79-1.15,1.8-1.15,3s.37,2.26,1.15,3Z" style="fill:#1a1a1a;"/><path d="m68.08,13.18h4.11l-5.41,14.83c-.79,2.13-1.8,3.7-3.1,4.67-1.29.97-2.86,1.39-4.76,1.29v-3.56c1.02,0,1.85-.18,2.45-.65s1.06-1.2,1.43-2.22l-6.05-14.37h4.2l3.88,9.98,3.23-9.98Z" style="fill:#1a1a1a;"/></g><g style="isolation:isolate;"><path d="m117.98,28.38c-2.22,0-4.11-.74-5.59-2.26-1.48-1.48-2.22-3.33-2.22-5.54s.74-4.07,2.22-5.54,3.33-2.26,5.59-2.26c1.48,0,2.77.37,3.93,1.06s2.03,1.66,2.54,2.82l-1.62.92c-.42-.88-1.02-1.62-1.89-2.13s-1.89-.79-3-.79c-1.66,0-3.05.55-4.16,1.71s-1.71,2.54-1.71,4.16.55,3.05,1.71,4.16,2.49,1.71,4.16,1.71c1.11,0,2.08-.28,2.96-.79.88-.51,1.57-1.25,2.03-2.13l1.62.97c-.6,1.2-1.52,2.13-2.68,2.82-1.11.74-2.45,1.11-3.88,1.11Z" style="fill:#1a1a1a;"/><path d="m129.39,15.63c.92-1.8,2.49-2.68,4.71-2.68v1.89c-1.34,0-2.45.42-3.37,1.2-.88.79-1.34,2.03-1.34,3.74v8.27h-1.94v-14.88h1.94v2.45Z" style="fill:#1a1a1a;"/><path d="m152.58,12.81c1.66,0,3,.55,4.02,1.62s1.52,2.49,1.52,4.34v9.29h-1.94v-9.33c0-1.29-.32-2.26-1.02-3-.65-.69-1.52-1.06-2.63-1.06-1.25,0-2.22.42-3,1.25-.74.83-1.15,2.13-1.15,3.83v8.22h-1.94v-9.24c0-1.29-.32-2.31-.92-3s-1.48-1.02-2.54-1.02c-1.2,0-2.22.42-3.05,1.25s-1.25,2.13-1.25,3.83v8.22h-1.94v-14.83h1.94v2.17c1.06-1.66,2.59-2.54,4.53-2.54,2.13,0,3.65.92,4.53,2.68,1.11-1.8,2.73-2.68,4.85-2.68Z" style="fill:#1a1a1a;"/></g></svg>